<mxfile host="app.diagrams.net" modified="2023-03-15T23:16:12.848Z" agent="5.0 (Windows NT 10.0; Win64; x64) AppleWebKit/537.36 (KHTML, like Gecko) Chrome/111.0.0.0 Safari/537.36" etag="tNhP3qMn8V7sAOMGXsEW" version="21.0.6" type="github">
  <diagram name="Page-1" id="ovVE_IsnzbApBG_TGXQu">
    <mxGraphModel dx="2284" dy="796" grid="1" gridSize="10" guides="1" tooltips="1" connect="1" arrows="1" fold="1" page="1" pageScale="1" pageWidth="850" pageHeight="1100" math="0" shadow="0">
      <root>
        <mxCell id="0" />
        <mxCell id="1" parent="0" />
        <mxCell id="ojPC6xP-fotPtnYqMYwn-2" value="" style="rounded=0;whiteSpace=wrap;html=1;" parent="1" vertex="1">
          <mxGeometry x="-290" y="10" width="1430" height="790" as="geometry" />
        </mxCell>
        <mxCell id="ojPC6xP-fotPtnYqMYwn-25" value="" style="rounded=0;whiteSpace=wrap;html=1;" parent="1" vertex="1">
          <mxGeometry x="-290" y="40" width="1430" height="30" as="geometry" />
        </mxCell>
        <mxCell id="ojPC6xP-fotPtnYqMYwn-37" value="Port Scan" style="rounded=0;whiteSpace=wrap;html=1;" parent="1" vertex="1">
          <mxGeometry x="-290" y="50" width="70" height="20" as="geometry" />
        </mxCell>
        <mxCell id="ojPC6xP-fotPtnYqMYwn-38" value="Dir Scan" style="rounded=0;whiteSpace=wrap;html=1;" parent="1" vertex="1">
          <mxGeometry x="-220" y="50" width="70" height="20" as="geometry" />
        </mxCell>
        <mxCell id="ojPC6xP-fotPtnYqMYwn-39" value="Terminal" style="rounded=0;whiteSpace=wrap;html=1;" parent="1" vertex="1">
          <mxGeometry x="-150" y="50" width="70" height="20" as="geometry" />
        </mxCell>
        <mxCell id="ojPC6xP-fotPtnYqMYwn-3" value="" style="rounded=0;whiteSpace=wrap;html=1;" parent="1" vertex="1">
          <mxGeometry x="-290" y="10" width="1430" height="30" as="geometry" />
        </mxCell>
        <mxCell id="ojPC6xP-fotPtnYqMYwn-4" value="" style="rounded=0;whiteSpace=wrap;html=1;" parent="1" vertex="1">
          <mxGeometry x="-290" y="770" width="1430" height="30" as="geometry" />
        </mxCell>
        <mxCell id="ojPC6xP-fotPtnYqMYwn-5" value="s to split" style="rounded=0;whiteSpace=wrap;html=1;" parent="1" vertex="1">
          <mxGeometry x="-170" y="770" width="50" height="30" as="geometry" />
        </mxCell>
        <mxCell id="ojPC6xP-fotPtnYqMYwn-6" value="d to toggle dark mode" style="rounded=0;whiteSpace=wrap;html=1;" parent="1" vertex="1">
          <mxGeometry x="-290" y="770" width="120" height="30" as="geometry" />
        </mxCell>
        <mxCell id="ojPC6xP-fotPtnYqMYwn-9" value="192.168.0.11" style="rounded=0;whiteSpace=wrap;html=1;align=left;" parent="1" vertex="1">
          <mxGeometry x="-90" y="20" width="90" height="20" as="geometry" />
        </mxCell>
        <mxCell id="ojPC6xP-fotPtnYqMYwn-10" value="192.168.0.12" style="rounded=0;whiteSpace=wrap;html=1;align=left;fillColor=#f5f5f5;gradientColor=#b3b3b3;strokeColor=#666666;" parent="1" vertex="1">
          <mxGeometry y="20" width="90" height="20" as="geometry" />
        </mxCell>
        <mxCell id="ojPC6xP-fotPtnYqMYwn-11" value="192.168.0.13" style="rounded=0;whiteSpace=wrap;html=1;align=left;fillColor=#f5f5f5;gradientColor=#b3b3b3;strokeColor=#666666;" parent="1" vertex="1">
          <mxGeometry x="90" y="20" width="90" height="20" as="geometry" />
        </mxCell>
        <mxCell id="ojPC6xP-fotPtnYqMYwn-14" value="192.168.0.0/24" style="rounded=0;whiteSpace=wrap;html=1;align=left;fillColor=#f5f5f5;gradientColor=#DBDBDB;strokeColor=#666666;" parent="1" vertex="1">
          <mxGeometry x="-190" y="10" width="100" height="30" as="geometry" />
        </mxCell>
        <mxCell id="ojPC6xP-fotPtnYqMYwn-17" value="&lt;div style=&quot;text-align: center;&quot;&gt;&lt;span style=&quot;background-color: initial;&quot;&gt;&lt;font style=&quot;font-size: 16px;&quot;&gt;&lt;b&gt;Nmap&lt;/b&gt;&lt;/font&gt;&lt;/span&gt;&lt;/div&gt;&lt;br&gt;Nmap scan results:&amp;nbsp; &amp;nbsp; &amp;nbsp; &amp;nbsp; &amp;nbsp; &amp;nbsp; &amp;nbsp; &amp;nbsp; &amp;nbsp; &amp;nbsp; &amp;nbsp; &amp;nbsp; &amp;nbsp; &amp;nbsp; &amp;nbsp; &amp;nbsp; &amp;nbsp; &amp;nbsp; &amp;nbsp; &amp;nbsp; &amp;nbsp; &amp;nbsp; &amp;nbsp; &amp;nbsp; &amp;nbsp; &amp;nbsp; &amp;nbsp; &amp;nbsp; &amp;nbsp; &amp;nbsp; &amp;nbsp; &amp;nbsp; &amp;nbsp; &amp;nbsp; &amp;nbsp; &amp;nbsp; &amp;nbsp; &amp;nbsp; &amp;nbsp; &amp;nbsp; &amp;nbsp; &amp;nbsp; &amp;nbsp; &amp;nbsp; &amp;nbsp; &amp;nbsp; &amp;nbsp; &amp;nbsp; &amp;nbsp; &amp;nbsp; &amp;nbsp; &amp;nbsp; &amp;nbsp; &amp;nbsp; &amp;nbsp; &amp;nbsp; &amp;nbsp; &amp;nbsp; &amp;nbsp; &amp;nbsp; &amp;nbsp; &amp;nbsp; &amp;nbsp; &amp;nbsp; &amp;nbsp; &amp;nbsp; &amp;nbsp; &amp;nbsp; &amp;nbsp; &amp;nbsp; &amp;nbsp;&amp;nbsp;&lt;br&gt;&lt;br&gt;Port 22&lt;br&gt;&lt;br&gt;Port 80&lt;br&gt;&lt;br&gt;Port 443&lt;br&gt;&lt;br&gt;Port 3389&lt;br&gt;&lt;br&gt;&lt;br&gt;&lt;br&gt;&lt;br&gt;&lt;br&gt;&lt;br&gt;&lt;br&gt;&lt;br&gt;&lt;br&gt;&lt;br&gt;&lt;br&gt;&lt;br&gt;&lt;br&gt;&lt;br&gt;&lt;br&gt;&lt;br&gt;&lt;br&gt;&lt;br&gt;&lt;br&gt;&lt;br&gt;&lt;br&gt;&lt;br&gt;&lt;br&gt;&lt;br&gt;&lt;br&gt;&lt;br&gt;&lt;br&gt;&lt;br&gt;&lt;br&gt;&lt;br&gt;&lt;br&gt;&lt;br&gt;&lt;br&gt;&lt;br&gt;&lt;br&gt;&lt;br&gt;&lt;br&gt;" style="rounded=0;whiteSpace=wrap;html=1;align=left;" parent="1" vertex="1">
          <mxGeometry x="-290" y="70" width="580" height="700" as="geometry" />
        </mxCell>
        <mxCell id="ojPC6xP-fotPtnYqMYwn-12" value="New Network" style="rounded=0;whiteSpace=wrap;html=1;" parent="1" vertex="1">
          <mxGeometry x="-280" y="60" width="80" height="20" as="geometry" />
        </mxCell>
        <mxCell id="ojPC6xP-fotPtnYqMYwn-13" value="New Target" style="rounded=0;whiteSpace=wrap;html=1;" parent="1" vertex="1">
          <mxGeometry x="-280" y="40" width="80" height="20" as="geometry" />
        </mxCell>
        <mxCell id="ojPC6xP-fotPtnYqMYwn-7" value="Actions" style="rounded=0;whiteSpace=wrap;html=1;" parent="1" vertex="1">
          <mxGeometry x="-60" y="60" width="60" height="20" as="geometry" />
        </mxCell>
        <mxCell id="ojPC6xP-fotPtnYqMYwn-8" value="Intel" style="rounded=0;whiteSpace=wrap;html=1;" parent="1" vertex="1">
          <mxGeometry x="-60" y="40" width="60" height="20" as="geometry" />
        </mxCell>
        <mxCell id="ojPC6xP-fotPtnYqMYwn-20" value="Port Scan" style="rounded=0;whiteSpace=wrap;html=1;" parent="1" vertex="1">
          <mxGeometry y="60" width="60" height="20" as="geometry" />
        </mxCell>
        <mxCell id="ojPC6xP-fotPtnYqMYwn-21" value="Dir scan" style="rounded=0;whiteSpace=wrap;html=1;" parent="1" vertex="1">
          <mxGeometry y="80" width="60" height="20" as="geometry" />
        </mxCell>
        <mxCell id="ojPC6xP-fotPtnYqMYwn-22" value="Cracking" style="rounded=0;whiteSpace=wrap;html=1;" parent="1" vertex="1">
          <mxGeometry y="100" width="60" height="20" as="geometry" />
        </mxCell>
        <mxCell id="ojPC6xP-fotPtnYqMYwn-23" value="File" style="rounded=0;whiteSpace=wrap;html=1;" parent="1" vertex="1">
          <mxGeometry x="-280" y="10" width="40" height="30" as="geometry" />
        </mxCell>
        <mxCell id="ojPC6xP-fotPtnYqMYwn-24" value="Terminal" style="rounded=0;whiteSpace=wrap;html=1;" parent="1" vertex="1">
          <mxGeometry x="-280" y="80" width="80" height="20" as="geometry" />
        </mxCell>
        <mxCell id="ojPC6xP-fotPtnYqMYwn-27" value="" style="rounded=0;whiteSpace=wrap;html=1;fillColor=#e6d0de;strokeColor=#996185;gradientColor=#d5739d;" parent="1" vertex="1">
          <mxGeometry x="-100" y="10" width="10" height="30" as="geometry" />
        </mxCell>
        <mxCell id="ojPC6xP-fotPtnYqMYwn-29" value="" style="html=1;shadow=0;dashed=0;align=center;verticalAlign=middle;shape=mxgraph.arrows2.arrow;dy=0.6;dx=40;direction=south;notch=0;" parent="1" vertex="1">
          <mxGeometry x="-100" y="10" width="10" height="10" as="geometry" />
        </mxCell>
        <mxCell id="ojPC6xP-fotPtnYqMYwn-31" value="" style="rounded=0;whiteSpace=wrap;html=1;fillColor=#e6d0de;gradientColor=#d5739d;strokeColor=#996185;" parent="1" vertex="1">
          <mxGeometry x="80" y="20" width="10" height="20" as="geometry" />
        </mxCell>
        <mxCell id="ojPC6xP-fotPtnYqMYwn-32" value="" style="html=1;shadow=0;dashed=0;align=center;verticalAlign=middle;shape=mxgraph.arrows2.arrow;dy=0.6;dx=40;direction=south;notch=0;" parent="1" vertex="1">
          <mxGeometry x="80" y="20" width="10" height="10" as="geometry" />
        </mxCell>
        <mxCell id="ojPC6xP-fotPtnYqMYwn-33" value="" style="rounded=0;whiteSpace=wrap;html=1;fillColor=#e6d0de;gradientColor=#d5739d;strokeColor=#996185;" parent="1" vertex="1">
          <mxGeometry x="170" y="20" width="10" height="20" as="geometry" />
        </mxCell>
        <mxCell id="ojPC6xP-fotPtnYqMYwn-34" value="" style="html=1;shadow=0;dashed=0;align=center;verticalAlign=middle;shape=mxgraph.arrows2.arrow;dy=0.6;dx=40;direction=south;notch=0;" parent="1" vertex="1">
          <mxGeometry x="170" y="20" width="10" height="10" as="geometry" />
        </mxCell>
        <mxCell id="ojPC6xP-fotPtnYqMYwn-35" value="" style="rounded=0;whiteSpace=wrap;html=1;fillColor=#e6d0de;gradientColor=#d5739d;strokeColor=#996185;" parent="1" vertex="1">
          <mxGeometry x="-10" y="20" width="10" height="20" as="geometry" />
        </mxCell>
        <mxCell id="ojPC6xP-fotPtnYqMYwn-36" value="" style="html=1;shadow=0;dashed=0;align=center;verticalAlign=middle;shape=mxgraph.arrows2.arrow;dy=0.6;dx=40;direction=south;notch=0;" parent="1" vertex="1">
          <mxGeometry x="-10" y="20" width="10" height="10" as="geometry" />
        </mxCell>
      </root>
    </mxGraphModel>
  </diagram>
</mxfile>
